HIERARCHY
ROOT root
{
	OFFSET 0.000000 0.000000 0.000000
	CHANNELS 6 Xposition Yposition Zposition Zrotation Yrotation Xrotation
	JOINT lhip
	{
		OFFSET 0.058581 -0.082280 -0.017664
		CHANNELS 3 Zrotation Yrotation Xrotation
		JOINT lknee
		{
			OFFSET 0.043451 -0.386469 0.008037
			CHANNELS 3 Zrotation Yrotation Xrotation
			JOINT lankle
			{
				OFFSET -0.014790 -0.426874 -0.037428
				CHANNELS 3 Zrotation Yrotation Xrotation
				JOINT ltoe
				{
					OFFSET 0.041054 -0.060286 0.122042
					CHANNELS 3 Zrotation Yrotation Xrotation
					End Site
					{
						OFFSET 0.000000 0.000000 0.000000
					}
				}
			}
		}
	}
	JOINT rhip
	{
		OFFSET -0.060310 -0.090513 -0.013543
		CHANNELS 3 Zrotation Yrotation Xrotation
		JOINT rknee
		{
			OFFSET -0.043257 -0.383688 -0.004843
			CHANNELS 3 Zrotation Yrotation Xrotation
			JOINT rankle
			{
				OFFSET 0.019056 -0.420046 -0.034562
				CHANNELS 3 Zrotation Yrotation Xrotation
				JOINT rtoe
				{
					OFFSET -0.034840 -0.062106 0.130323
					CHANNELS 3 Zrotation Yrotation Xrotation
					End Site
					{
						OFFSET 0.000000 0.000000 0.000000
					}
				}
			}
		}
	}
	JOINT lowerback
	{
		OFFSET 0.004439 0.124404 -0.038385
		CHANNELS 3 Zrotation Yrotation Xrotation
		JOINT upperback
		{
			OFFSET 0.004488 0.137956 0.026820
			CHANNELS 3 Zrotation Yrotation Xrotation
			JOINT chest
			{
				OFFSET -0.002265 0.056032 0.002855
				CHANNELS 3 Zrotation Yrotation Xrotation
				JOINT lowerneck
				{
					OFFSET -0.013390 0.211636 -0.033468
					CHANNELS 3 Zrotation Yrotation Xrotation
					JOINT upperneck
					{
						OFFSET 0.010113 0.088937 0.050410
						CHANNELS 3 Zrotation Yrotation Xrotation
						End Site
						{
							OFFSET 0.000000 0.000000 0.000000
						}
					}
				}
				JOINT lclavicle
				{
					OFFSET 0.071702 0.114000 -0.018898
					CHANNELS 3 Zrotation Yrotation Xrotation
					JOINT lshoulder
					{
						OFFSET 0.122921 0.045205 -0.019046
						CHANNELS 3 Zrotation Yrotation Xrotation
						JOINT lelbow
						{
							OFFSET 0.255332 -0.015649 -0.022946
							CHANNELS 3 Zrotation Yrotation Xrotation
							JOINT lwrist
							{
								OFFSET 0.265709 0.012698 -0.007375
								CHANNELS 3 Zrotation Yrotation Xrotation
								End Site
								{
									OFFSET 0.000000 0.000000 0.000000
								}
							}
						}
					}
				}
				JOINT rclavicle
				{
					OFFSET -0.082954 0.112472 -0.023707
					CHANNELS 3 Zrotation Yrotation Xrotation
					JOINT rshoulder
					{
						OFFSET -0.113228 0.046853 -0.008472
						CHANNELS 3 Zrotation Yrotation Xrotation
						JOINT relbow
						{
							OFFSET -0.260127 -0.014369 -0.031269
							CHANNELS 3 Zrotation Yrotation Xrotation
							JOINT rwrist
							{
								OFFSET -0.269108 0.006794 -0.006027
								CHANNELS 3 Zrotation Yrotation Xrotation
								End Site
								{
									OFFSET 0.000000 0.000000 0.000000
								}
							}
						}
					}
				}
			}
		}
	}
}
MOTION
Frames: 13
Frame Time: 0.033333
-0.084710 1.404680 0.967238 -80.322010 4.455977 80.461165 5.255743 -0.110153 20.974953 -7.275412 -24.434944 22.689542 2.263955 7.468422 -23.382313 0.000000 -0.000000 0.000000 1.646301 -1.638886 -14.592751 3.255528 -3.701247 10.941801 6.130908 -7.828168 4.126380 0.000000 -0.000000 0.000000 -1.962708 -6.704919 3.325274 3.592140 -6.945702 7.648983 0.232893 -6.785423 4.830383 1.745984 -4.281268 16.374595 -4.745443 -0.151754 14.215634 -24.157060 3.816556 6.640346 -60.984383 -17.774064 10.607064 12.439257 -33.932213 6.164547 -2.611095 -1.424741 -14.604316 21.937908 -10.110772 1.834987 62.618137 -4.828459 7.756912 -17.733652 15.618528 -4.658255 12.657581 -1.075482 -8.301410 
-0.121093 1.411370 0.970193 -81.490682 5.603154 80.357447 5.832580 -1.320254 20.858784 -8.274198 -22.526229 28.444278 0.512766 7.233050 -18.823952 0.000000 -0.000000 0.000000 3.555205 0.095508 -14.183991 3.665482 -3.954608 14.699420 4.107697 -8.248720 3.509399 0.000000 -0.000000 0.000000 -0.685288 -7.078598 2.733352 4.032246 -6.411746 8.018239 -0.090113 -6.501006 4.462824 1.973636 -5.282027 16.190182 -5.126733 -0.820721 13.868521 -25.086360 4.577165 6.291252 -61.141078 -16.425238 10.527449 12.521064 -32.504838 6.740136 -3.493129 -1.335391 -13.888564 22.103925 -10.096865 1.668393 62.826837 -4.573136 7.920279 -17.760583 14.953330 -4.145019 12.146863 -0.905611 -9.940063 
-0.164508 1.420151 0.975993 -83.462868 6.639532 79.285224 6.924896 -1.695055 17.726377 -10.974174 -16.812435 40.552363 -2.965017 5.739048 -8.534349 0.000000 -0.000000 0.000000 6.213828 1.143192 -10.514293 3.933933 -3.562646 15.453058 0.796518 -7.168207 2.097273 0.000000 -0.000000 0.000000 0.131853 -6.499292 3.300160 4.583047 -6.302323 8.502973 -0.153750 -5.988850 4.044448 1.744883 -5.796526 15.975097 -5.004352 -1.104679 14.119370 -25.356282 5.393778 5.833337 -62.314311 -13.912423 9.834266 13.200798 -31.128079 7.154512 -4.742010 -0.063384 -13.543564 21.935600 -9.754042 1.594861 63.312764 -3.897035 7.544422 -17.841924 15.624866 -2.569073 12.181217 -1.532515 -10.649660 
-0.196680 1.426936 0.980198 -84.660630 6.859313 78.149757 7.619949 -1.007726 13.715115 -11.866030 -12.163207 50.561004 -3.650349 5.605609 -1.908293 0.000000 -0.000000 0.000000 7.503486 0.230183 -5.961527 4.003770 -3.111156 13.674055 -1.031720 -5.362035 -0.405251 0.000000 -0.000000 0.000000 0.072784 -5.228655 4.441067 4.843626 -6.528484 8.736563 0.155329 -5.391216 3.509972 1.196263 -6.357832 16.768346 -4.319793 -0.849009 13.971526 -25.609488 5.171631 6.019374 -62.416081 -11.788838 8.949730 12.780503 -30.413597 7.261001 -4.815177 1.117679 -13.964696 21.779181 -9.074213 2.209147 63.474466 -4.036392 7.003728 -17.520358 18.349337 -1.393237 11.894428 -1.456322 -11.455758 
-0.225552 1.432388 0.983805 -85.800237 7.077810 77.172985 7.857759 -0.632011 8.912797 -11.047057 -7.624407 59.292697 -1.989519 7.690482 -1.335394 0.000000 -0.000000 0.000000 8.063461 -1.422415 -1.754432 4.832062 -1.679690 12.054782 -1.651601 -4.229987 -1.432253 0.000000 -0.000000 0.000000 0.587156 -3.372746 5.379509 4.962627 -6.556274 8.908263 -0.005170 -5.042783 3.338593 0.831038 -6.330306 17.417691 -4.187175 0.076189 14.267086 -25.890196 4.521965 6.644995 -61.847216 -10.548984 8.053699 11.971589 -29.471819 7.673812 -5.560114 1.480340 -14.089013 21.891247 -8.459075 2.671385 63.368242 -3.729208 7.013233 -16.987490 21.564612 -0.598895 11.397428 -0.617301 -12.058557 
-0.252389 1.437246 0.988012 -87.404832 7.065607 75.966863 7.874077 -0.680134 4.518377 -9.323430 -3.424811 64.651855 -0.055741 9.758257 -4.234816 0.000000 -0.000000 0.000000 8.676385 -1.549953 2.098654 4.957085 -0.781476 11.063620 -1.423890 -3.713693 -1.963337 0.000000 -0.000000 0.000000 0.934297 -1.640238 6.706932 5.058305 -5.940938 8.714116 -0.186084 -4.581557 3.633177 0.888359 -6.173465 17.905095 -4.330278 0.651704 14.797802 -26.102639 4.292380 7.114920 -61.397380 -9.496706 7.217358 11.651293 -28.900593 8.000546 -5.544545 1.698176 -12.754061 22.004520 -7.719104 3.084665 63.130125 -2.957024 7.448521 -16.498651 24.765461 -0.289580 9.656601 -0.161575 -12.689717 
-0.277018 1.441288 0.991694 -89.458758 6.428637 75.141782 7.355650 -1.066449 -0.025056 -8.318991 -0.146833 66.752688 0.769028 9.610028 -5.479159 0.000000 -0.000000 0.000000 8.538176 -2.374964 5.681549 4.849364 0.762409 9.473324 -1.198994 -2.980300 -1.876606 0.000000 -0.000000 0.000000 0.684100 0.252426 7.674702 4.952151 -5.586156 8.688717 -0.019488 -3.843382 3.699979 0.993164 -6.863698 18.489392 -4.202489 0.350242 14.614980 -26.243957 4.712168 7.332568 -61.435507 -8.013253 6.625034 11.993200 -28.596357 7.905644 -4.723086 2.001560 -11.923741 21.708008 -6.653695 3.472042 62.813019 -1.678309 7.747081 -16.266886 27.258305 -0.183900 8.030819 0.156806 -13.076172 
-0.299944 1.444176 0.994125 -91.148454 5.675081 74.482173 6.616442 -2.058908 -4.240517 -8.514734 1.642921 65.864147 1.255436 9.021817 -7.075123 0.000000 -0.000000 0.000000 8.192017 -2.941571 7.893496 4.552768 1.941333 9.852817 -1.012335 -2.542500 -3.501681 0.000000 -0.000000 0.000000 0.297231 1.719085 8.411588 4.799338 -5.359240 8.741152 0.065847 -3.014925 3.848306 0.964175 -7.537365 19.627289 -4.146868 -0.608225 14.929390 -26.049808 5.282248 7.335726 -61.647180 -6.520456 6.381796 12.356201 -28.394880 6.615521 -4.372659 2.439301 -12.970949 21.336624 -5.644026 3.594278 62.571662 -0.105054 8.106813 -16.523693 29.350664 -0.389181 7.542815 0.218574 -13.233257 
-0.321369 1.446409 0.995194 -92.790770 4.948916 74.206764 6.076699 -2.866201 -8.056908 -7.921194 2.816737 62.080699 1.637314 9.404578 -8.277755 0.000000 -0.000000 0.000000 7.841880 -3.004019 9.513212 4.202017 3.368139 10.353123 -0.910942 -2.225482 -5.145609 0.000000 -0.000000 0.000000 0.238466 2.979633 9.226076 4.417528 -4.871578 8.219303 -0.046579 -2.408057 4.022575 1.149461 -7.521498 19.630674 -4.333193 -1.012098 15.050138 -26.026400 6.054704 7.219785 -61.312949 -4.702375 6.056728 12.383669 -28.285744 5.786841 -3.771139 2.506153 -13.622701 21.092577 -4.902210 3.621910 62.176838 1.303351 8.658555 -16.868905 31.284104 -1.111545 6.474227 0.339284 -13.903829 
-0.342802 1.447978 0.995011 -94.172743 4.281963 73.807047 5.695527 -3.251280 -10.582004 -6.647100 3.459407 56.027132 2.671069 10.439372 -8.693956 0.000000 -0.000000 0.000000 7.455646 -3.206704 11.090311 3.950271 4.677967 11.431605 -1.155674 -2.240819 -7.127355 0.000000 -0.000000 0.000000 0.322896 4.033956 9.822884 3.979973 -4.349302 8.005716 -0.308471 -1.946308 4.307795 1.368622 -7.511309 19.528294 -4.749149 -1.574074 15.345203 -26.058135 6.515433 7.189312 -60.674419 -3.315815 5.919335 12.243256 -27.661323 5.274570 -3.514059 2.316467 -13.862538 20.932490 -4.138030 3.476283 61.821390 2.884916 9.144317 -17.027250 32.417332 -2.381977 4.698262 0.573787 -14.664455 
-0.364501 1.449033 0.994288 -95.504506 3.607347 73.133464 5.400218 -2.677974 -11.580984 -5.492553 3.674046 48.185868 2.834697 11.346445 -9.480935 0.000000 -0.000000 0.000000 6.874579 -3.410750 13.070470 3.638604 6.118221 12.336280 -1.300670 -2.056520 -9.113204 0.000000 -0.000000 0.000000 0.295368 4.895813 10.369618 3.533670 -3.776650 8.257500 -0.378550 -1.359005 4.462488 1.473346 -7.524106 18.820917 -5.460755 -2.304366 15.830284 -26.160717 6.788077 6.413552 -60.253393 -1.918513 5.583804 12.024900 -26.144611 5.362291 -3.559557 2.480950 -13.032892 21.020491 -3.207539 3.210519 61.186346 4.478903 9.205706 -17.124734 32.865719 -3.610100 4.406018 0.801149 -14.460747 
-0.386100 1.450017 0.992337 -96.000321 3.531062 72.604530 5.562359 -1.713208 -11.738260 -4.042405 4.699109 39.415115 3.167219 11.943259 -8.487793 0.000000 -0.000000 0.000000 6.502506 -3.804966 15.371331 3.740517 6.840587 12.343504 -1.509815 -2.067305 -10.931345 0.000000 -0.000000 0.000000 0.727676 5.266030 10.648888 3.137920 -3.451174 8.880500 -0.528524 -0.748715 4.281148 1.409704 -7.615808 18.931314 -5.797789 -2.598732 16.005078 -26.383651 6.577928 6.614285 -59.901662 -1.033176 5.024784 12.582794 -24.770570 4.939576 -4.018140 2.783893 -12.131456 20.806803 -2.050197 3.303372 61.207398 5.883006 8.906457 -17.629508 32.729097 -4.477051 4.507799 1.017079 -14.121495 
-0.407686 1.450820 0.989407 -95.785505 3.881725 72.237734 5.863443 -0.114931 -11.413875 -3.225793 6.486587 30.455715 3.501022 12.643955 -7.401673 0.000000 -0.000000 0.000000 6.244111 -4.628897 17.303505 4.061318 6.685094 12.890860 -1.489004 -1.777348 -12.565576 0.000000 -0.000000 0.000000 1.171544 5.159149 11.040517 2.922148 -3.223039 8.849418 -0.455494 -0.330948 4.234695 1.459815 -8.031786 18.805841 -6.245096 -3.210409 16.655620 -26.484530 6.807564 5.924562 -59.838977 -0.262551 4.426402 12.602388 -22.722294 4.630340 -4.451332 2.591009 -11.217987 20.606277 -1.472840 3.080826 60.979913 7.311392 8.644951 -17.050410 31.660303 -4.335088 5.525039 1.130355 -13.195251 
